<svg width="1919.9999999999998" height="1080" xmlns="http://www.w3.org/2000/svg">

 <g>
  <title>Layer 1</title>
  <path stroke-width="0" id="svg_4" d="m-57.50875,227.4925c0,0 612.49406,144.9986 614.99404,144.9986c2.49997,0 219.99786,184.9982 217.50717,182.5035c2.49069,2.4947 202.48875,-20.00508 199.99806,-22.49978c2.49069,2.4947 119.98956,104.99371 117.49885,102.499c2.49071,2.49471 197.48881,-52.50476 194.99811,-54.99946c2.4907,2.4947 329.98753,-337.502 332.48751,-337.502c2.49997,0 372.49638,82.4992 370.00565,80.0045c2.49073,2.4947 -7.50917,834.98662 -9.9999,832.4919c2.49073,2.49472 -2049.98937,27.49448 -2049.98006,24.99976c-0.00931,2.49472 -12.50919,-912.49641 -12.49988,-914.9911c-0.00931,2.49469 24.99045,-37.50492 24.99045,-37.50492z" opacity="NaN" stroke="#000" fill="#cc5168"/>
 </g>
</svg>