<?xml version="1.0" standalone="no"?>
<!DOCTYPE svg PUBLIC "-//W3C//DTD SVG 20010904//EN"
 "http://www.w3.org/TR/2001/REC-SVG-20010904/DTD/svg10.dtd">
<svg version="1.0" xmlns="http://www.w3.org/2000/svg"
 width="512.000000pt" height="512.000000pt" viewBox="0 0 512.000000 512.000000"
 preserveAspectRatio="xMidYMid meet">
<metadata>
Created by potrace 1.14, written by Peter Selinger 2001-2017
</metadata>
<g transform="translate(0.000000,512.000000) scale(0.100000,-0.100000)"
fill="#000000" stroke="none">
<path d="M1342 4247 c-6 -7 -33 -80 -61 -162 -27 -83 -62 -181 -76 -220 -15
-38 -35 -95 -45 -125 -11 -30 -45 -127 -76 -215 -125 -357 -156 -443 -180
-515 -13 -41 -29 -84 -33 -95 -27 -64 -37 -93 -81 -225 -44 -132 -54 -161 -81
-225 -4 -11 -19 -54 -33 -95 -24 -72 -80 -232 -187 -535 -27 -77 -58 -165 -69
-195 -10 -30 -35 -100 -55 -155 -20 -55 -53 -152 -74 -215 -22 -63 -45 -128
-51 -145 -7 -16 -16 -39 -21 -50 -14 -36 -70 -199 -76 -222 l-5 -23 1768 0
1769 0 18 48 c11 26 23 56 27 67 5 11 20 54 34 95 25 72 83 240 187 535 28 77
58 165 68 195 l18 55 -763 3 c-480 1 -764 6 -764 12 0 5 7 26 16 47 28 64 32
76 58 153 l24 75 701 3 c386 1 701 3 701 5 0 1 12 34 26 72 14 39 34 95 44
125 11 30 42 118 69 195 27 77 67 192 90 255 22 63 49 140 61 170 11 30 20 58
20 62 0 5 -313 8 -695 8 l-695 0 5 23 c4 12 21 67 40 122 l33 100 770 3 770 2
21 63 c11 34 42 125 70 202 101 286 162 462 187 535 26 78 30 90 58 153 9 21
16 40 16 42 0 3 -796 5 -1769 5 -1433 0 -1771 -2 -1779 -13z"/>
</g>
</svg>
